<svg width="90" height="13" viewBox="0 0 90 13" fill="none" xmlns="http://www.w3.org/2000/svg">
<path d="M0.0113636 12V0.363636H2.47159V9.97159H7.46023V12H0.0113636ZM19.3295 6.18182C19.3295 7.45076 19.089 8.5303 18.608 9.42045C18.1307 10.3106 17.4792 10.9905 16.6534 11.4602C15.8314 11.9261 14.9072 12.1591 13.8807 12.1591C12.8466 12.1591 11.9186 11.9242 11.0966 11.4545C10.2746 10.9848 9.625 10.3049 9.14773 9.41477C8.67045 8.52462 8.43182 7.44697 8.43182 6.18182C8.43182 4.91288 8.67045 3.83333 9.14773 2.94318C9.625 2.05303 10.2746 1.375 11.0966 0.909091C11.9186 0.439394 12.8466 0.204545 13.8807 0.204545C14.9072 0.204545 15.8314 0.439394 16.6534 0.909091C17.4792 1.375 18.1307 2.05303 18.608 2.94318C19.089 3.83333 19.3295 4.91288 19.3295 6.18182ZM16.8352 6.18182C16.8352 5.35985 16.7121 4.66667 16.4659 4.10227C16.2235 3.53788 15.8807 3.10985 15.4375 2.81818C14.9943 2.52652 14.4754 2.38068 13.8807 2.38068C13.286 2.38068 12.767 2.52652 12.3239 2.81818C11.8807 3.10985 11.536 3.53788 11.2898 4.10227C11.0473 4.66667 10.9261 5.35985 10.9261 6.18182C10.9261 7.00379 11.0473 7.69697 11.2898 8.26136C11.536 8.82576 11.8807 9.25379 12.3239 9.54545C12.767 9.83712 13.286 9.98295 13.8807 9.98295C14.4754 9.98295 14.9943 9.83712 15.4375 9.54545C15.8807 9.25379 16.2235 8.82576 16.4659 8.26136C16.7121 7.69697 16.8352 7.00379 16.8352 6.18182ZM28.8679 4.125C28.7884 3.84848 28.6766 3.60417 28.5327 3.39205C28.3887 3.17614 28.2126 2.99432 28.0043 2.84659C27.7997 2.69508 27.5649 2.57955 27.2997 2.5C27.0384 2.42045 26.7486 2.38068 26.4304 2.38068C25.8357 2.38068 25.313 2.52841 24.8622 2.82386C24.4152 3.11932 24.0668 3.54924 23.8168 4.11364C23.5668 4.67424 23.4418 5.35985 23.4418 6.17045C23.4418 6.98106 23.5649 7.67045 23.8111 8.23864C24.0573 8.80682 24.4058 9.24053 24.8565 9.53977C25.3073 9.83523 25.8395 9.98295 26.4531 9.98295C27.0099 9.98295 27.4853 9.88447 27.8793 9.6875C28.277 9.48674 28.58 9.20455 28.7884 8.84091C29.0005 8.47727 29.1065 8.04735 29.1065 7.55114L29.6065 7.625H26.6065V5.77273H31.4759V7.23864C31.4759 8.26136 31.2599 9.14015 30.8281 9.875C30.3963 10.6061 29.8016 11.1705 29.044 11.5682C28.2865 11.9621 27.419 12.1591 26.4418 12.1591C25.3509 12.1591 24.3925 11.9186 23.5668 11.4375C22.741 10.9527 22.0971 10.2652 21.6349 9.375C21.1766 8.48106 20.9474 7.42045 20.9474 6.19318C20.9474 5.25 21.0838 4.40909 21.3565 3.67045C21.633 2.92803 22.0194 2.29924 22.5156 1.78409C23.0118 1.26894 23.5895 0.876893 24.2486 0.607954C24.9077 0.339015 25.6217 0.204545 26.3906 0.204545C27.0497 0.204545 27.6634 0.301136 28.2315 0.494318C28.7997 0.683712 29.3035 0.952651 29.7429 1.30114C30.1861 1.64962 30.5478 2.06439 30.8281 2.54545C31.1084 3.02273 31.2884 3.54924 31.3679 4.125H28.8679ZM44.017 6.18182C44.017 7.45076 43.7765 8.5303 43.2955 9.42045C42.8182 10.3106 42.1667 10.9905 41.3409 11.4602C40.5189 11.9261 39.5947 12.1591 38.5682 12.1591C37.5341 12.1591 36.6061 11.9242 35.7841 11.4545C34.9621 10.9848 34.3125 10.3049 33.8352 9.41477C33.358 8.52462 33.1193 7.44697 33.1193 6.18182C33.1193 4.91288 33.358 3.83333 33.8352 2.94318C34.3125 2.05303 34.9621 1.375 35.7841 0.909091C36.6061 0.439394 37.5341 0.204545 38.5682 0.204545C39.5947 0.204545 40.5189 0.439394 41.3409 0.909091C42.1667 1.375 42.8182 2.05303 43.2955 2.94318C43.7765 3.83333 44.017 4.91288 44.017 6.18182ZM41.5227 6.18182C41.5227 5.35985 41.3996 4.66667 41.1534 4.10227C40.911 3.53788 40.5682 3.10985 40.125 2.81818C39.6818 2.52652 39.1629 2.38068 38.5682 2.38068C37.9735 2.38068 37.4545 2.52652 37.0114 2.81818C36.5682 3.10985 36.2235 3.53788 35.9773 4.10227C35.7348 4.66667 35.6136 5.35985 35.6136 6.18182C35.6136 7.00379 35.7348 7.69697 35.9773 8.26136C36.2235 8.82576 36.5682 9.25379 37.0114 9.54545C37.4545 9.83712 37.9735 9.98295 38.5682 9.98295C39.1629 9.98295 39.6818 9.83712 40.125 9.54545C40.5682 9.25379 40.911 8.82576 41.1534 8.26136C41.3996 7.69697 41.5227 7.00379 41.5227 6.18182ZM49.5426 12V0.363636H52.0028V5.16477H56.9972V0.363636H59.4517V12H56.9972V7.19318H52.0028V12H49.5426ZM61.4801 12V0.363636H69.321V2.39205H63.9403V5.16477H68.9176V7.19318H63.9403V9.97159H69.3438V12H61.4801ZM71.277 12V0.363636H75.8679C76.7467 0.363636 77.4967 0.520833 78.1179 0.835227C78.7429 1.14583 79.2183 1.58712 79.544 2.15909C79.8736 2.72727 80.0384 3.39583 80.0384 4.16477C80.0384 4.9375 79.8717 5.60227 79.5384 6.15909C79.205 6.71212 78.7221 7.13636 78.0895 7.43182C77.4607 7.72727 76.6993 7.875 75.8054 7.875H72.7315V5.89773H75.4077C75.8774 5.89773 76.2675 5.83333 76.5781 5.70455C76.8887 5.57576 77.1198 5.38258 77.2713 5.125C77.4266 4.86742 77.5043 4.54735 77.5043 4.16477C77.5043 3.77841 77.4266 3.45265 77.2713 3.1875C77.1198 2.92235 76.8868 2.72159 76.5724 2.58523C76.2618 2.44508 75.8698 2.375 75.3963 2.375H73.7372V12H71.277ZM77.5611 6.70455L80.4531 12H77.7372L74.9077 6.70455H77.5611ZM81.777 12V0.363636H89.6179V2.39205H84.2372V5.16477H89.2145V7.19318H84.2372V9.97159H89.6406V12H81.777Z" fill="black"/>
</svg>
